# xmcd
#
# Track frame offsets:
#	150
#	19104
#	33332
#	48471
#	63209
#	81753
#	96630
#	107026
#	122416
#	139221
#	155436
#	170260
#	185211
#	201222
#
# Disc length: 2854 seconds
#
# Revision: 1
# Processed by: cddbd v1.5.2PL0 Copyright (c) Steve Scherf et al.
# Submitted via: audiograbber 1.83.01
#
DISCID=bf0b240e
DTITLE=Maren Morris - GIRL
DYEAR=2019
DGENRE=Country
TTITLE0=GIRL
TTITLE1=The Feels
TTITLE2=All My Favorite People
TTITLE3=A Song for Everything
TTITLE4=Common
TTITLE5=Flavor
TTITLE6=Make Out With Me
TTITLE7=Gold Love
TTITLE8=Great Ones
TTITLE9=RSVP
TTITLE10=To Hell and Back
TTITLE11=The Bones
TTITLE12=Good Woman
TTITLE13=Shade
EXTD=
EXTT0=
EXTT1=
EXTT2=
EXTT3=
EXTT4=
EXTT5=
EXTT6=
EXTT7=
EXTT8=
EXTT9=
EXTT10=
EXTT11=
EXTT12=
EXTT13=
PLAYORDER=
